# xmcd CD database file
#
# Track frame offsets:
#	150
#	17602
#	29087
#	39177
#	53660
#	70882
#	80977
#	93725
#	110867
#	123592
#	138862
#	152342
#	160350
#	168565
#	177250
#	184682
#	203317
#	212110
#	225757
#
# Disc length: 3197 seconds
#
# Revision: 0
# Processed by: cddbd v1.5.1PL0 Copyright (c) Steve Scherf et al.
# Submitted via: CDex 1.51
#
DISCID=fc0c7b13
DTITLE=Peter Lehel, Ull Mock - Joy To The World
DYEAR=2000
DGENRE=New Age
TTITLE0=Joy To The World
TTITLE1=Bajuschki Baju
TTITLE2=Roses
TTITLE3=Mourning Ship
TTITLE4=Reflections
TTITLE5=Sorrow
TTITLE6=Open The Sky
TTITLE7=Ave Maria
TTITLE8=Praise
TTITLE9=Bell Of The World
TTITLE10=Santa Claus
TTITLE11=Silent Night
TTITLE12=Greensleeves
TTITLE13=Go Tell It On The Mountain
TTITLE14=Auld Lang Syne
TTITLE15=Little Lady
TTITLE16=Psalm
TTITLE17=Eternal Lights
TTITLE18=Silence
EXTD=YEAR: 2000
EXTT0=
EXTT1=
EXTT2=
EXTT3=
EXTT4=
EXTT5=
EXTT6=
EXTT7=
EXTT8=
EXTT9=
EXTT10=
EXTT11=
EXTT12=
EXTT13=
EXTT14=
EXTT15=
EXTT16=
EXTT17=
EXTT18=
PLAYORDER=
